<svg height="464" viewBox="0 0 760 464" width="760" xmlns="http://www.w3.org/2000/svg" xmlns:xlink="http://www.w3.org/1999/xlink"><marker id="a" markerHeight="9" markerWidth="9" orient="auto" refX="4.5" refY="4.5"><path d="m1 1 7 3.5-7 3.5z" fill="#0f6e5e"/></marker><marker id="b" markerHeight="9" markerWidth="9" orient="auto" refX="4.5" refY="4.5"><path d="m1 1 7 3.5-7 3.5z" fill="#b4541f"/></marker><rect fill="#eaefea" height="464" rx="14" stroke="#d3ddd6" width="760"/><path d="m646 30v402" marker-end="url(#a)" stroke="#0f6e5e" stroke-width="1.4"/><text fill="#0f6e5e" font-family="ui-monospace,Menlo,monospace" font-size="11" letter-spacing="1.5" text-anchor="middle" transform="matrix(0 1 -1 0 897 -435)" x="666" y="231">READ TOP-DOWN · WHY a line of code exists</text><path d="m114 432v-402" marker-end="url(#b)" stroke="#b4541f" stroke-width="1.4"/><text fill="#b4541f" font-family="ui-monospace,Menlo,monospace" font-size="11" letter-spacing="1.5" text-anchor="middle" transform="matrix(0 -1 1 0 -137 325)" x="94" y="231">READ BOTTOM-UP · HOW FAR a change reaches</text><g stroke="#0f6e5e" stroke-width="1.4"><path d="m380 80v7"/><path d="m380 107v6" marker-end="url(#a)"/><path d="m380 170v7"/><path d="m380 197v6" marker-end="url(#a)"/><path d="m380 260v7"/><path d="m380 287v6" marker-end="url(#a)"/><path d="m380 350v7"/><path d="m380 377v6" marker-end="url(#a)"/></g><g font-family="ui-monospace,Menlo,monospace" font-size="10.5" text-anchor="middle"><rect fill="#dcebe5" height="20" rx="10" stroke="#0f6e5e" width="60" x="350" y="87"/><text fill="#0f6e5e" x="380" y="101">gates ↓</text><rect fill="#dcebe5" height="20" rx="10" stroke="#0f6e5e" width="60" x="350" y="177"/><text fill="#0f6e5e" x="380" y="191">gates ↓</text><rect fill="#dcebe5" height="20" rx="10" stroke="#0f6e5e" width="60" x="350" y="267"/><text fill="#0f6e5e" x="380" y="281">gates ↓</text><rect fill="#dcebe5" height="20" rx="10" stroke="#0f6e5e" width="60" x="350" y="357"/><text fill="#0f6e5e" x="380" y="371">gates ↓</text></g><g font-family="system-ui,-apple-system,Segoe UI,Roboto,sans-serif"><rect fill="#f0e9cf" height="56" rx="11" stroke="#9a7b18" stroke-width="1.3" width="460" x="150" y="24"/><text fill="#16201d" font-size="15" font-weight="600" x="172" y="46">Constitution</text><text fill="#4c5a54" font-size="11.5" x="172" y="65">principles · stack · testing · performance</text><text fill="#9a7b18" font-family="ui-monospace,Menlo,monospace" font-size="12" text-anchor="end" x="588" y="57">constitution.md</text><rect fill="#fbfcfb" height="56" rx="11" stroke="#d3ddd6" width="460" x="150" y="114"/><text fill="#16201d" font-size="15" font-weight="600" x="172" y="136">Mission</text><text fill="#4c5a54" font-size="11.5" x="172" y="155">problem · users · value</text><text fill="#0f6e5e" font-family="ui-monospace,Menlo,monospace" font-size="12" text-anchor="end" x="588" y="147">mission.md</text><rect fill="#fbfcfb" height="56" rx="11" stroke="#d3ddd6" width="460" x="150" y="204"/><text fill="#16201d" font-size="15" font-weight="600" x="172" y="226">Roadmap</text><text fill="#4c5a54" font-size="11.5" x="172" y="245">Now / Next / Later</text><text fill="#0f6e5e" font-family="ui-monospace,Menlo,monospace" font-size="12" text-anchor="end" x="588" y="237">roadmap.md</text><rect fill="#fbfcfb" height="56" rx="11" stroke="#d3ddd6" width="460" x="150" y="294"/><text fill="#16201d" font-size="15" font-weight="600" x="172" y="316">Specs</text><text fill="#4c5a54" font-size="11.5" x="172" y="335">Plan · Requirement · Validation</text><text fill="#0f6e5e" font-family="ui-monospace,Menlo,monospace" font-size="12" text-anchor="end" x="588" y="327">spec-&lt;feature&gt;.md</text><rect fill="#dcebe5" height="56" rx="11" stroke="#0f6e5e" stroke-width="1.6" width="460" x="150" y="384"/><text fill="#0c3a33" font-size="15" font-weight="600" x="172" y="406">Code</text><text fill="#4c5a54" font-size="11.5" x="172" y="425">the only place that says “how”</text><text fill="#0c3a33" font-family="ui-monospace,Menlo,monospace" font-size="12" text-anchor="end" x="588" y="417">src/…</text></g></svg>